<svg xmlns="http://www.w3.org/2000/svg" xmlns:xlink="http://www.w3.org/1999/xlink" contentStyleType="text/css" data-diagram-type="CLASS" height="652px" preserveAspectRatio="xMidYMid meet" style="width: 100%; height: 100%; background: rgb(255, 255, 255); max-width: 100%; position: absolute; top: 50%; left: 50%; transform: translate(-50%, -50%);" version="1.1" viewBox="0 0 905 652" width="905px" zoomAndPan="magnify"><defs/><g><!--class Transaction--><g class="entity" data-entity="Transaction" data-source-line="1" data-uid="ent0002" id="entity_Transaction"><rect fill="#F1F1F1" height="243.5625" rx="2.5" ry="2.5" style="stroke:#181818;stroke-width:0.5;" width="190.5957" x="39.34" y="402.27"/><ellipse cx="89.3141" cy="418.27" fill="#ADD1B2" rx="11" ry="11" style="stroke:#181818;stroke-width:1;"/><path d="M92.2829,423.9106 Q91.7047,424.2075 91.0641,424.3481 Q90.4235,424.5044 89.7204,424.5044 Q87.2204,424.5044 85.8922,422.8638 Q84.5797,421.2075 84.5797,418.0825 Q84.5797,414.9575 85.8922,413.3013 Q87.2204,411.645 89.7204,411.645 Q90.4235,411.645 91.0641,411.8013 Q91.7204,411.9575 92.2829,412.2544 L92.2829,414.9731 Q91.6579,414.395 91.0641,414.1294 Q90.4704,413.8481 89.8454,413.8481 Q88.5016,413.8481 87.8141,414.9263 Q87.1266,415.9888 87.1266,418.0825 Q87.1266,420.1763 87.8141,421.2544 Q88.5016,422.3169 89.8454,422.3169 Q90.4704,422.3169 91.0641,422.0513 Q91.6579,421.77 92.2829,421.1919 L92.2829,423.9106 Z " fill="#000000"/><text fill="#000000" font-family="sans-serif" font-size="14" lengthAdjust="spacing" textLength="82.1475" x="109.8141" y="423.1167">Transaction</text><line style="stroke:#181818;stroke-width:0.5;" x1="40.34" x2="228.9357" y1="434.27" y2="434.27"/><rect fill="none" height="6" style="stroke:#C82930;stroke-width:1;" width="6" x="47.34" y="444.9184"/><text fill="#000000" font-family="sans-serif" font-size="14" lengthAdjust="spacing" textLength="106.1826" x="59.34" y="451.2651">double amount</text><rect fill="none" height="6" style="stroke:#C82930;stroke-width:1;" width="6" x="47.34" y="461.2153"/><text fill="#000000" font-family="sans-serif" font-size="14" lengthAdjust="spacing" textLength="108.1035" x="59.34" y="467.562">String category</text><rect fill="none" height="6" style="stroke:#C82930;stroke-width:1;" width="6" x="47.34" y="477.5122"/><text fill="#000000" font-family="sans-serif" font-size="14" lengthAdjust="spacing" textLength="124.0723" x="59.34" y="483.8589">String description</text><rect fill="none" height="6" style="stroke:#C82930;stroke-width:1;" width="6" x="47.34" y="493.8091"/><text fill="#000000" font-family="sans-serif" font-size="14" lengthAdjust="spacing" textLength="106.0117" x="59.34" y="500.1557">LocalDate date</text><rect fill="none" height="6" style="stroke:#C82930;stroke-width:1;" width="6" x="47.34" y="510.1059"/><text fill="#000000" font-family="sans-serif" font-size="14" lengthAdjust="spacing" textLength="123.1221" x="59.34" y="516.4526">boolean isIncome</text><line style="stroke:#181818;stroke-width:0.5;" x1="40.34" x2="228.9357" y1="523.7544" y2="523.7544"/><ellipse cx="50.34" cy="537.4028" fill="#84BE84" rx="3" ry="3" style="stroke:#038048;stroke-width:1;"/><text fill="#000000" font-family="sans-serif" font-size="14" lengthAdjust="spacing" textLength="145.8105" x="59.34" y="540.7495">getAmount(): double</text><ellipse cx="50.34" cy="553.6997" fill="#84BE84" rx="3" ry="3" style="stroke:#038048;stroke-width:1;"/><text fill="#000000" font-family="sans-serif" font-size="14" lengthAdjust="spacing" textLength="148.8115" x="59.34" y="557.0464">getCategory(): String</text><ellipse cx="50.34" cy="569.9966" fill="#84BE84" rx="3" ry="3" style="stroke:#038048;stroke-width:1;"/><text fill="#000000" font-family="sans-serif" font-size="14" lengthAdjust="spacing" textLength="164.5957" x="59.34" y="573.3432">getDescription(): String</text><ellipse cx="50.34" cy="586.2934" fill="#84BE84" rx="3" ry="3" style="stroke:#038048;stroke-width:1;"/><text fill="#000000" font-family="sans-serif" font-size="14" lengthAdjust="spacing" textLength="146.5352" x="59.34" y="589.6401">getDate(): LocalDate</text><ellipse cx="50.34" cy="602.5903" fill="#84BE84" rx="3" ry="3" style="stroke:#038048;stroke-width:1;"/><text fill="#000000" font-family="sans-serif" font-size="14" lengthAdjust="spacing" textLength="138.7627" x="59.34" y="605.937">isIncome(): boolean</text><ellipse cx="50.34" cy="618.8872" fill="#84BE84" rx="3" ry="3" style="stroke:#038048;stroke-width:1;"/><text fill="#000000" font-family="sans-serif" font-size="14" lengthAdjust="spacing" textLength="117.708" x="59.34" y="622.2339">toString(): String</text><ellipse cx="50.34" cy="635.1841" fill="#84BE84" rx="3" ry="3" style="stroke:#038048;stroke-width:1;"/><text fill="#000000" font-family="sans-serif" font-size="14" lengthAdjust="spacing" textLength="142.1533" x="59.34" y="638.5307">toFileString(): String</text></g><!--class Budget--><g class="entity" data-entity="Budget" data-source-line="16" data-uid="ent0003" id="entity_Budget"><rect fill="#F1F1F1" height="145.7813" rx="2.5" ry="2.5" style="stroke:#181818;stroke-width:0.5;" width="174.8115" x="265.23" y="451.16"/><ellipse cx="323.209" cy="467.16" fill="#ADD1B2" rx="11" ry="11" style="stroke:#181818;stroke-width:1;"/><path d="M326.1778,472.8006 Q325.5996,473.0975 324.959,473.2381 Q324.3184,473.3944 323.6153,473.3944 Q321.1153,473.3944 319.7871,471.7538 Q318.4746,470.0975 318.4746,466.9725 Q318.4746,463.8475 319.7871,462.1913 Q321.1153,460.535 323.6153,460.535 Q324.3184,460.535 324.959,460.6913 Q325.6153,460.8475 326.1778,461.1444 L326.1778,463.8631 Q325.5528,463.285 324.959,463.0194 Q324.3653,462.7381 323.7403,462.7381 Q322.3965,462.7381 321.709,463.8163 Q321.0215,464.8788 321.0215,466.9725 Q321.0215,469.0663 321.709,470.1444 Q322.3965,471.2069 323.7403,471.2069 Q324.3653,471.2069 324.959,470.9413 Q325.5528,470.66 326.1778,470.0819 L326.1778,472.8006 Z " fill="#000000"/><text fill="#000000" font-family="sans-serif" font-size="14" lengthAdjust="spacing" textLength="50.3535" x="343.709" y="472.0067">Budget</text><line style="stroke:#181818;stroke-width:0.5;" x1="266.23" x2="439.0415" y1="483.16" y2="483.16"/><rect fill="none" height="6" style="stroke:#C82930;stroke-width:1;" width="6" x="273.23" y="493.8084"/><text fill="#000000" font-family="sans-serif" font-size="14" lengthAdjust="spacing" textLength="108.1035" x="285.23" y="500.1551">String category</text><rect fill="none" height="6" style="stroke:#C82930;stroke-width:1;" width="6" x="273.23" y="510.1053"/><text fill="#000000" font-family="sans-serif" font-size="14" lengthAdjust="spacing" textLength="82.9609" x="285.23" y="516.452">double limit</text><line style="stroke:#181818;stroke-width:0.5;" x1="266.23" x2="439.0415" y1="523.7538" y2="523.7538"/><ellipse cx="276.23" cy="537.4022" fill="#84BE84" rx="3" ry="3" style="stroke:#038048;stroke-width:1;"/><text fill="#000000" font-family="sans-serif" font-size="14" lengthAdjust="spacing" textLength="148.8115" x="285.23" y="540.7489">getCategory(): String</text><ellipse cx="276.23" cy="553.6991" fill="#84BE84" rx="3" ry="3" style="stroke:#038048;stroke-width:1;"/><text fill="#000000" font-family="sans-serif" font-size="14" lengthAdjust="spacing" textLength="125.501" x="285.23" y="557.0457">getLimit(): double</text><ellipse cx="276.23" cy="569.9959" fill="#84BE84" rx="3" ry="3" style="stroke:#038048;stroke-width:1;"/><text fill="#000000" font-family="sans-serif" font-size="14" lengthAdjust="spacing" textLength="117.708" x="285.23" y="573.3426">toString(): String</text><ellipse cx="276.23" cy="586.2928" fill="#84BE84" rx="3" ry="3" style="stroke:#038048;stroke-width:1;"/><text fill="#000000" font-family="sans-serif" font-size="14" lengthAdjust="spacing" textLength="142.1533" x="285.23" y="589.6395">toFileString(): String</text></g><!--class FileHandler--><g class="entity" data-entity="FileHandler" data-source-line="25" data-uid="ent0004" id="entity_FileHandler"><rect fill="#F1F1F1" height="145.7813" rx="2.5" ry="2.5" style="stroke:#181818;stroke-width:0.5;" width="423.5576" x="474.85" y="451.16"/><ellipse cx="642.5937" cy="467.16" fill="#ADD1B2" rx="11" ry="11" style="stroke:#181818;stroke-width:1;"/><path d="M645.5624,472.8006 Q644.9843,473.0975 644.3437,473.2381 Q643.703,473.3944 642.9999,473.3944 Q640.4999,473.3944 639.1718,471.7538 Q637.8593,470.0975 637.8593,466.9725 Q637.8593,463.8475 639.1718,462.1913 Q640.4999,460.535 642.9999,460.535 Q643.703,460.535 644.3437,460.6913 Q644.9999,460.8475 645.5624,461.1444 L645.5624,463.8631 Q644.9374,463.285 644.3437,463.0194 Q643.7499,462.7381 643.1249,462.7381 Q641.7812,462.7381 641.0937,463.8163 Q640.4062,464.8788 640.4062,466.9725 Q640.4062,469.0663 641.0937,470.1444 Q641.7812,471.2069 643.1249,471.2069 Q643.7499,471.2069 644.3437,470.9413 Q644.9374,470.66 645.5624,470.0819 L645.5624,472.8006 Z " fill="#000000"/><text fill="#000000" font-family="sans-serif" font-size="14" lengthAdjust="spacing" textLength="79.5703" x="663.0937" y="472.0067">FileHandler</text><line style="stroke:#181818;stroke-width:0.5;" x1="475.85" x2="897.4076" y1="483.16" y2="483.16"/><rect fill="none" height="6" style="stroke:#C82930;stroke-width:1;" width="6" x="482.85" y="493.8084"/><text fill="#000000" font-family="sans-serif" font-size="14" lengthAdjust="spacing" textLength="182.7998" x="494.85" y="500.1551">String TRANSACTION_FILE</text><rect fill="none" height="6" style="stroke:#C82930;stroke-width:1;" width="6" x="482.85" y="510.1053"/><text fill="#000000" font-family="sans-serif" font-size="14" lengthAdjust="spacing" textLength="140.9365" x="494.85" y="516.452">String BUDGET_FILE</text><line style="stroke:#181818;stroke-width:0.5;" x1="475.85" x2="897.4076" y1="523.7538" y2="523.7538"/><ellipse cx="485.85" cy="537.4022" fill="#84BE84" rx="3" ry="3" style="stroke:#038048;stroke-width:1;"/><text fill="#000000" font-family="sans-serif" font-size="14" lengthAdjust="spacing" textLength="397.5576" x="494.85" y="540.7489">saveTransactions(transactions: List&lt;Transaction&gt;): void</text><ellipse cx="485.85" cy="553.6991" fill="#84BE84" rx="3" ry="3" style="stroke:#038048;stroke-width:1;"/><text fill="#000000" font-family="sans-serif" font-size="14" lengthAdjust="spacing" textLength="269.5342" x="494.85" y="557.0457">loadTransactions(): List&lt;Transaction&gt;</text><ellipse cx="485.85" cy="569.9959" fill="#84BE84" rx="3" ry="3" style="stroke:#038048;stroke-width:1;"/><text fill="#000000" font-family="sans-serif" font-size="14" lengthAdjust="spacing" textLength="304.5205" x="494.85" y="573.3426">saveBudgets(budgets: List&lt;Budget&gt;): void</text><ellipse cx="485.85" cy="586.2928" fill="#84BE84" rx="3" ry="3" style="stroke:#038048;stroke-width:1;"/><text fill="#000000" font-family="sans-serif" font-size="14" lengthAdjust="spacing" textLength="205.9463" x="494.85" y="589.6395">loadBudgets(): List&lt;Budget&gt;</text></g><!--class FinanceManager--><g class="entity" data-entity="FinanceManager" data-source-line="34" data-uid="ent0005" id="entity_FinanceManager"><rect fill="#F1F1F1" height="194.6719" rx="2.5" ry="2.5" style="stroke:#181818;stroke-width:0.5;" width="691.2666" x="7" y="147.6"/><ellipse cx="290.4111" cy="163.6" fill="#ADD1B2" rx="11" ry="11" style="stroke:#181818;stroke-width:1;"/><path d="M293.3799,169.2406 Q292.8018,169.5375 292.1611,169.6781 Q291.5205,169.8344 290.8174,169.8344 Q288.3174,169.8344 286.9893,168.1938 Q285.6768,166.5375 285.6768,163.4125 Q285.6768,160.2875 286.9893,158.6313 Q288.3174,156.975 290.8174,156.975 Q291.5205,156.975 292.1611,157.1313 Q292.8174,157.2875 293.3799,157.5844 L293.3799,160.3031 Q292.7549,159.725 292.1611,159.4594 Q291.5674,159.1781 290.9424,159.1781 Q289.5986,159.1781 288.9111,160.2563 Q288.2236,161.3188 288.2236,163.4125 Q288.2236,165.5063 288.9111,166.5844 Q289.5986,167.6469 290.9424,167.6469 Q291.5674,167.6469 292.1611,167.3813 Q292.7549,167.1 293.3799,166.5219 L293.3799,169.2406 Z " fill="#000000"/><text fill="#000000" font-family="sans-serif" font-size="14" lengthAdjust="spacing" textLength="115.9443" x="310.9111" y="168.4467">FinanceManager</text><line style="stroke:#181818;stroke-width:0.5;" x1="8" x2="697.2666" y1="179.6" y2="179.6"/><rect fill="none" height="6" style="stroke:#C82930;stroke-width:1;" width="6" x="15" y="190.2484"/><text fill="#000000" font-family="sans-serif" font-size="14" lengthAdjust="spacing" textLength="220.9102" x="27" y="196.5951">List&lt;Transaction&gt; transactions</text><rect fill="none" height="6" style="stroke:#C82930;stroke-width:1;" width="6" x="15" y="206.5453"/><text fill="#000000" font-family="sans-serif" font-size="14" lengthAdjust="spacing" textLength="159.667" x="27" y="212.892">List&lt;Budget&gt; budgets</text><line style="stroke:#181818;stroke-width:0.5;" x1="8" x2="697.2666" y1="220.1938" y2="220.1938"/><ellipse cx="18" cy="233.8422" fill="#84BE84" rx="3" ry="3" style="stroke:#038048;stroke-width:1;"/><text fill="#000000" font-family="sans-serif" font-size="14" lengthAdjust="spacing" textLength="126.8682" x="27" y="237.1889">FinanceManager()</text><ellipse cx="18" cy="250.1391" fill="#84BE84" rx="3" ry="3" style="stroke:#038048;stroke-width:1;"/><text fill="#000000" font-family="sans-serif" font-size="14" lengthAdjust="spacing" textLength="665.2666" x="27" y="253.4857">addTransaction(amount: double, category: String, description: String, isIncome: boolean): void</text><ellipse cx="18" cy="266.4359" fill="#84BE84" rx="3" ry="3" style="stroke:#038048;stroke-width:1;"/><text fill="#000000" font-family="sans-serif" font-size="14" lengthAdjust="spacing" textLength="335.8223" x="27" y="269.7826">addBudget(category: String, limit: double): void</text><ellipse cx="18" cy="282.7328" fill="#84BE84" rx="3" ry="3" style="stroke:#038048;stroke-width:1;"/><text fill="#000000" font-family="sans-serif" font-size="14" lengthAdjust="spacing" textLength="146.6309" x="27" y="286.0795">getBalance(): double</text><ellipse cx="18" cy="299.0297" fill="#84BE84" rx="3" ry="3" style="stroke:#038048;stroke-width:1;"/><text fill="#000000" font-family="sans-serif" font-size="14" lengthAdjust="spacing" textLength="171.3975" x="27" y="302.3764">viewTransactions(): void</text><ellipse cx="18" cy="315.3266" fill="#84BE84" rx="3" ry="3" style="stroke:#038048;stroke-width:1;"/><text fill="#000000" font-family="sans-serif" font-size="14" lengthAdjust="spacing" textLength="139.6035" x="27" y="318.6732">viewBudgets(): void</text><ellipse cx="18" cy="331.6234" fill="#84BE84" rx="3" ry="3" style="stroke:#038048;stroke-width:1;"/><text fill="#000000" font-family="sans-serif" font-size="14" lengthAdjust="spacing" textLength="185.6709" x="27" y="334.9701">checkBudgetStatus(): void</text></g><!--class PersonalFinanceManager--><g class="entity" data-entity="PersonalFinanceManager" data-source-line="46" data-uid="ent0006" id="entity_PersonalFinanceManager"><rect fill="#F1F1F1" height="80.5938" rx="2.5" ry="2.5" style="stroke:#181818;stroke-width:0.5;" width="207.957" x="248.65" y="7"/><ellipse cx="263.65" cy="23" fill="#ADD1B2" rx="11" ry="11" style="stroke:#181818;stroke-width:1;"/><path d="M266.6188,28.6406 Q266.0406,28.9375 265.4,29.0781 Q264.7594,29.2344 264.0563,29.2344 Q261.5563,29.2344 260.2281,27.5938 Q258.9156,25.9375 258.9156,22.8125 Q258.9156,19.6875 260.2281,18.0313 Q261.5563,16.375 264.0563,16.375 Q264.7594,16.375 265.4,16.5313 Q266.0563,16.6875 266.6188,16.9844 L266.6188,19.7031 Q265.9938,19.125 265.4,18.8594 Q264.8063,18.5781 264.1813,18.5781 Q262.8375,18.5781 262.15,19.6563 Q261.4625,20.7188 261.4625,22.8125 Q261.4625,24.9063 262.15,25.9844 Q262.8375,27.0469 264.1813,27.0469 Q264.8063,27.0469 265.4,26.7813 Q265.9938,26.5 266.6188,25.9219 L266.6188,28.6406 Z " fill="#000000"/><text fill="#000000" font-family="sans-serif" font-size="14" lengthAdjust="spacing" textLength="175.957" x="277.65" y="27.8467">PersonalFinanceManager</text><line style="stroke:#181818;stroke-width:0.5;" x1="249.65" x2="455.607" y1="39" y2="39"/><line style="stroke:#181818;stroke-width:0.5;" x1="249.65" x2="455.607" y1="47" y2="47"/><ellipse cx="259.65" cy="60.6484" fill="#84BE84" rx="3" ry="3" style="stroke:#038048;stroke-width:1;"/><text fill="#000000" font-family="sans-serif" font-size="14" lengthAdjust="spacing" textLength="177.085" x="268.65" y="63.9951">main(args: String[]): void</text><rect fill="#F24D5C" height="6" style="stroke:#C82930;stroke-width:1;" width="6" x="256.65" y="73.9453"/><text fill="#000000" font-family="sans-serif" font-size="14" lengthAdjust="spacing" textLength="137.8672" x="268.65" y="80.292">displayMenu(): void</text></g><!--link FinanceManager to Transaction--><g class="link" data-entity-1="FinanceManager" data-entity-2="Transaction" data-source-line="51" data-uid="lnk7" id="link_FinanceManager_Transaction"><path codeLine="51" d="M269.2735,351.8938 C254.1635,371.1138 249.2408,377.3651 233.5708,397.2751" fill="none" id="FinanceManager-Transaction" style="stroke:#181818;stroke-width:1;"/><polygon fill="none" points="276.69,342.46,269.8372,344.7047,269.2735,351.8938,276.1264,349.649,276.69,342.46" style="stroke:#181818;stroke-width:1;"/><polygon fill="#181818" points="229.86,401.99,238.5694,397.3916,232.9523,398.0609,232.283,392.4438,229.86,401.99" style="stroke:#181818;stroke-width:1;"/><text fill="#000000" font-family="sans-serif" font-size="13" lengthAdjust="spacing" textLength="36.5625" x="198.5829" y="391.1658">many</text></g><!--link FinanceManager to Budget--><g class="link" data-entity-1="FinanceManager" data-entity-2="Budget" data-source-line="52" data-uid="lnk8" id="link_FinanceManager_Budget"><path codeLine="52" d="M352.63,354.46 C352.63,390.08 352.63,411.78 352.63,444.88" fill="none" id="FinanceManager-Budget" style="stroke:#181818;stroke-width:1;"/><polygon fill="none" points="352.63,342.46,348.63,348.46,352.63,354.46,356.63,348.46,352.63,342.46" style="stroke:#181818;stroke-width:1;"/><polygon fill="#181818" points="352.63,450.88,356.63,441.88,352.63,445.88,348.63,441.88,352.63,450.88" style="stroke:#181818;stroke-width:1;"/><text fill="#000000" font-family="sans-serif" font-size="13" lengthAdjust="spacing" textLength="36.5625" x="314.8852" y="440.0124">many</text></g><!--link FinanceManager to FileHandler--><g class="link" data-entity-1="FinanceManager" data-entity-2="FileHandler" data-source-line="53" data-uid="lnk9" id="link_FinanceManager_FileHandler"><path codeLine="53" d="M468.98,342.46 C511.91,378.08 555.1426,413.9486 595.0326,447.0486" fill="none" id="FinanceManager-to-FileHandler" style="stroke:#181818;stroke-width:1;stroke-dasharray:7.0,7.0;"/><polygon fill="#181818" points="599.65,450.88,595.2782,442.0546,595.8022,447.6871,590.1696,448.2111,599.65,450.88" style="stroke:#181818;stroke-width:1;"/></g><!--link PersonalFinanceManager to FinanceManager--><g class="link" data-entity-1="PersonalFinanceManager" data-entity-2="FinanceManager" data-source-line="54" data-uid="lnk10" id="link_PersonalFinanceManager_FinanceManager"><path codeLine="54" d="M352.63,87.89 C352.63,105.19 352.63,120.32 352.63,141.37" fill="none" id="PersonalFinanceManager-to-FinanceManager" style="stroke:#181818;stroke-width:1;stroke-dasharray:7.0,7.0;"/><polygon fill="#181818" points="352.63,147.37,356.63,138.37,352.63,142.37,348.63,138.37,352.63,147.37" style="stroke:#181818;stroke-width:1;"/></g><!--SRC=[dLHTIyCm57tlhmW-jUpZ1uWCzgc3ROgRJo9obuOQJ9FHf9CX_dVpqRHPEnLysTWvzzvpxaaop41Aj2k0Iy2A2eu-8uG6A1NbdX44kIYviiXM5PHd28CYcIXE8POIYGjwCEqMNWaCRAOBKQe_BBGNWX7WYCebno8tO0zbH8sjG9nSLueUdrOoXd4gdfarOXT8tMRGse4blAXXAYCMLy9rj-OeiQ2CTAYlAC8shKcPQgagg4knLE4ncbFrzq8hKzPAu9_E37i7F6MaEBUtUnnljkFfRdc_ULqiL_EGcppDRkSx3_UGX2C9BeICLV13HqkbkWduaVPn53IrlKn0UjQRN6YeLLoGCjwxxwhKePsnlZWvBmkNvy0nMGE7hDw_8ux2RPgIQXggh5ZLyu5nOa58mmLZzq3ysVNhU-3FfXy-ZWRqDxA-Z-6sMiBPYRlJx9toSc6JBfy0CtvRL-b8oKVxIEekGmR1rZX-8_ZT4Li5gcpOEku7KaZ1WLs8lOToe3gR8fFU-VDBCru_42eF34vhmijmS6kK60n6w2e7VheA_w5-AtEMsnN3uIXy6j4FrbrP27q3]--></g></svg>